<?xml version="1.0" standalone="no"?>
<!DOCTYPE svg PUBLIC "-//W3C//DTD SVG 20010904//EN"
 "http://www.w3.org/TR/2001/REC-SVG-20010904/DTD/svg10.dtd">
<svg version="1.0" xmlns="http://www.w3.org/2000/svg"
 width="1713.000000pt" height="1719.000000pt" viewBox="0 0 1713.000000 1719.000000"
 preserveAspectRatio="xMidYMid meet">

<g transform="translate(0.000000,1719.000000) scale(0.100000,-0.100000)"
fill="#000000" stroke="none">
<path d="M3435 17174 c-50 -18 -83 -49 -93 -88 -5 -17 -7 -870 -4 -1896 3
-1290 1 -1903 -6 -1989 -13 -143 -36 -204 -89 -234 -43 -24 -206 -39 -384 -35
-155 3 -183 14 -206 79 -9 26 -12 497 -12 2039 0 1922 -1 2005 -18 2018 -21
16 -98 10 -190 -14 -75 -19 -239 -91 -270 -118 l-24 -21 -2 -1915 -2 -1915
-25 -50 c-38 -76 -59 -83 -304 -97 -232 -14 -271 -8 -310 45 l-21 28 -3 1780
c-1 1082 -6 1779 -11 1779 -24 0 -357 -288 -477 -412 -267 -274 -457 -542
-614 -863 -132 -269 -202 -473 -260 -765 -80 -399 -98 -874 -83 -2198 l8 -714
22 -17 c20 -17 166 -18 2620 -24 1429 -3 2628 -2 2665 3 99 12 160 45 283 155
630 558 1305 904 2070 1060 974 198 1916 75 2796 -366 371 -185 694 -404 994
-674 142 -128 190 -157 280 -174 44 -9 769 -10 2685 -5 l2624 7 21 22 c21 20
22 33 28 310 10 423 8 1631 -3 1920 -11 285 -30 484 -66 666 -56 288 -140 538
-270 798 -172 347 -371 620 -663 911 -544 541 -1217 870 -1956 956 -114 13
-728 16 -4840 20 -4539 5 -4711 5 -4744 -13 -19 -10 -44 -31 -55 -46 l-21 -28
-5 -2002 c-4 -1545 -8 -2010 -18 -2038 -14 -41 -55 -83 -96 -99 -16 -6 -124
-16 -240 -22 -236 -12 -272 -7 -310 45 l-21 29 0 2031 c0 2032 0 2032 -21
2067 -11 19 -35 45 -54 57 -30 21 -45 23 -149 22 -75 0 -130 -6 -156 -15z
m11750 -1428 c182 -54 310 -183 362 -366 17 -61 18 -126 18 -1085 0 -961 -1
-1023 -18 -1079 -61 -198 -189 -321 -382 -371 -88 -22 -1997 -22 -2093 0 -198
47 -340 192 -383 390 -9 46 -12 288 -13 1065 0 1109 -2 1069 63 1198 80 158
220 245 421 262 52 4 516 7 1030 6 860 -2 940 -4 995 -20z"/>
<path d="M8395 11884 c-710 -47 -1342 -286 -1905 -720 -136 -105 -445 -409
-552 -544 -391 -492 -621 -1032 -715 -1675 -26 -175 -25 -668 0 -850 108 -761
419 -1400 941 -1934 483 -493 1080 -815 1761 -950 230 -45 348 -55 645 -55
311 0 426 11 690 64 855 172 1619 679 2110 1400 301 443 482 927 557 1486 21
165 24 617 5 779 -97 790 -423 1468 -971 2016 -550 549 -1242 880 -2026 969
-99 11 -445 20 -540 14z m435 -895 c1103 -102 1992 -921 2195 -2023 61 -333
57 -710 -11 -1006 -187 -821 -813 -1512 -1625 -1795 -132 -46 -264 -79 -425
-107 -171 -29 -546 -32 -725 -5 -425 64 -801 220 -1136 473 -550 416 -905
1047 -983 1749 -15 136 -12 437 5 572 35 267 109 512 229 758 384 785 1154
1312 2031 1388 93 8 338 6 445 -4z"/>
<path d="M151 11049 c-51 -10 -87 -39 -109 -89 -13 -31 -15 -450 -13 -3855 1
-2360 6 -3870 12 -3950 36 -491 156 -920 373 -1340 176 -341 370 -601 653
-875 561 -544 1275 -858 2093 -920 200 -15 10702 -15 10875 0 679 60 1290 301
1810 714 132 105 429 403 539 541 413 520 634 1039 713 1675 17 137 18 355 18
4081 0 3437 -2 3939 -15 3963 -8 15 -28 35 -45 44 -28 16 -216 17 -2470 20
-1342 1 -2446 0 -2452 -3 -8 -3 13 -44 61 -117 322 -495 560 -1078 665 -1631
78 -408 91 -897 35 -1327 -66 -509 -213 -998 -429 -1430 -218 -436 -460 -766
-821 -1121 -731 -716 -1600 -1134 -2614 -1256 -205 -25 -716 -25 -920 0 -1038
126 -1929 557 -2660 1287 -714 712 -1135 1628 -1235 2690 -21 220 -16 698 9
888 89 668 306 1258 688 1868 48 78 88 144 88 148 0 9 -4800 5 -4849 -5z"/>
</g>
</svg>
